<?xml version="1.0" standalone="no"?>
<!DOCTYPE svg PUBLIC "-//W3C//DTD SVG 20010904//EN"
 "http://www.w3.org/TR/2001/REC-SVG-20010904/DTD/svg10.dtd">
<svg version="1.0" xmlns="http://www.w3.org/2000/svg"
 width="1560.000000pt" height="975.000000pt" viewBox="0 0 1560.000000 975.000000"
 preserveAspectRatio="xMidYMid meet">

<g transform="translate(0.000000,975.000000) scale(0.100000,-0.100000)"
fill="#000000" stroke="none">
<path d="M0 4875 l0 -4875 7800 0 7800 0 0 4875 0 4875 -7800 0 -7800 0 0
-4875z m6296 4689 c22 -6 40 -41 170 -329 42 -93 98 -215 124 -270 26 -55 51
-111 55 -125 6 -23 106 -235 160 -340 12 -25 28 -62 35 -83 6 -20 35 -86 65
-145 29 -59 56 -118 60 -132 11 -35 37 -95 111 -247 35 -73 64 -134 64 -138 0
-3 20 -47 45 -97 25 -51 45 -100 45 -111 0 -22 16 -55 41 -82 10 -11 34 -61
54 -110 46 -113 103 -242 165 -370 67 -140 130 -281 130 -293 0 -5 25 -58 56
-117 30 -59 70 -143 89 -188 44 -109 68 -162 127 -287 28 -58 59 -127 70 -155
11 -27 23 -55 28 -60 5 -6 16 -33 26 -60 9 -28 25 -61 35 -74 11 -13 19 -27
19 -32 0 -4 13 -36 29 -71 34 -75 83 -189 101 -238 7 -19 19 -42 26 -50 7 -9
23 -38 34 -65 46 -107 93 -201 112 -221 18 -20 27 -22 101 -17 45 3 105 4 132
4 28 -1 1451 -2 3162 -4 l3113 -2 27 -28 28 -27 5 -783 c5 -775 5 -782 27
-827 11 -25 27 -63 33 -85 7 -22 30 -71 51 -110 21 -38 47 -95 59 -125 12 -30
32 -77 45 -105 80 -170 125 -268 125 -272 0 -2 21 -48 46 -101 86 -179 115
-262 125 -352 11 -104 11 -430 0 -601 -8 -129 -16 -156 -87 -294 -9 -16 -39
-82 -67 -145 -28 -63 -63 -136 -78 -161 -15 -25 -30 -57 -34 -70 -16 -53 -90
-219 -176 -394 -32 -66 -59 -124 -59 -128 0 -4 -15 -40 -33 -80 -19 -40 -42
-93 -52 -119 -10 -26 -23 -53 -31 -59 -9 -7 -395 -11 -1312 -12 -1185 -1
-1302 1 -1324 15 -26 17 -25 12 -59 268 -6 41 -17 85 -25 98 l-15 22 -649 0
c-358 -1 -654 1 -659 4 -5 3 -19 -2 -32 -13 -18 -14 -25 -35 -34 -107 -25
-183 -38 -246 -55 -267 l-18 -21 -1513 2 c-1262 3 -1516 5 -1528 17 -7 7 -17
46 -21 87 -5 40 -13 89 -18 108 -6 19 -13 78 -17 130 -3 52 -11 100 -18 107
-7 7 -48 14 -91 16 -67 3 -82 1 -98 -15 -10 -10 -18 -24 -18 -30 -3 -107 -45
-397 -59 -411 -9 -9 -121 -11 -479 -10 -537 3 -482 3 -640 -1 -141 -3 -143 -2
-180 85 -13 30 -34 77 -47 104 -88 189 -165 362 -165 373 0 4 -10 23 -23 42
-13 19 -34 62 -47 95 -13 33 -37 89 -53 125 -16 36 -40 90 -53 119 -51 115
-124 171 -195 151 -22 -7 -588 -10 -1604 -9 l-1570 1 -23 -37 c-13 -21 -34
-65 -47 -99 -36 -93 -66 -160 -127 -286 -30 -63 -61 -131 -68 -150 -7 -19 -46
-104 -87 -188 -40 -84 -73 -156 -73 -160 0 -4 -16 -40 -36 -80 -48 -97 -66
-106 -178 -92 -84 12 -1092 9 -1112 -2 -5 -3 -52 1 -104 8 -67 9 -98 18 -107
30 -17 24 -19 4491 -2 4559 13 50 29 68 79 84 66 22 79 39 88 116 4 39 5 146
2 239 -4 138 -8 170 -20 174 -8 3 -28 18 -43 34 -16 15 -32 28 -37 28 -17 0
-69 71 -75 102 -3 18 -4 625 -3 1349 l3 1315 26 40 c26 39 79 155 94 204 4 14
38 84 74 155 37 72 78 160 91 195 13 36 58 137 100 225 43 88 96 207 119 265
60 148 96 221 126 253 l26 27 2687 0 c1478 0 2696 -3 2708 -6z m3565 -4 c21
-12 124 -212 185 -360 40 -96 86 -196 117 -255 33 -64 44 -86 68 -150 21 -54
157 -348 194 -418 8 -16 15 -35 15 -43 0 -8 11 -26 25 -39 l24 -25 1523 0
c991 0 1536 4 1559 10 35 10 40 17 127 195 50 101 101 212 112 247 12 35 39
97 60 138 41 79 122 256 171 375 48 114 152 316 169 325 8 4 279 7 602 7 l587
-2 23 -23 23 -23 7 -612 c4 -336 5 -754 1 -927 l-6 -315 -32 -80 c-43 -104
-71 -171 -95 -220 -10 -22 -42 -92 -71 -155 -29 -63 -71 -156 -94 -206 -24
-50 -46 -101 -50 -114 -4 -13 -27 -63 -51 -110 -24 -48 -44 -90 -44 -93 0 -4
-15 -37 -32 -74 l-33 -68 -5 -505 c-5 -478 -6 -508 -24 -535 -11 -17 -27 -35
-35 -42 -12 -9 -737 -12 -3228 -12 l-3213 0 -54 112 c-29 61 -75 159 -101 217
-26 58 -51 113 -57 124 -5 10 -35 75 -65 145 -30 69 -74 166 -98 216 -24 49
-58 124 -75 165 -18 41 -42 96 -55 121 -13 25 -44 93 -68 151 -25 57 -67 151
-95 209 -27 57 -80 172 -117 254 -37 83 -82 182 -100 221 -19 39 -43 94 -54
122 -12 29 -34 78 -50 110 -16 31 -50 106 -75 166 -26 59 -64 143 -86 187 -21
43 -53 111 -71 151 -52 120 -227 506 -280 616 -27 57 -49 106 -49 110 0 4 -27
66 -61 137 -123 259 -170 369 -183 430 -7 34 15 108 40 137 15 16 104 17 1585
18 1107 0 1575 -3 1590 -10z m3998 -135 c13 -13 11 -23 -17 -80 -18 -36 -39
-82 -46 -103 -8 -20 -23 -55 -35 -77 -11 -22 -21 -49 -22 -60 0 -11 -13 -42
-29 -70 -65 -113 -85 -154 -115 -239 -49 -142 152 -126 -1563 -126 -816 0
-1488 3 -1494 6 -10 6 -60 110 -83 174 -11 32 -80 179 -156 335 -16 33 -29 63
-29 67 0 4 -13 37 -30 73 -36 79 -38 101 -7 109 12 3 755 6 1651 6 896 0 1631
1 1632 3 1 1 76 1 166 -1 124 -2 166 -7 177 -17z m1531 -4423 c0 -1191 -4
-1973 -10 -1982 -7 -11 -11 -9 -19 13 -6 16 -11 31 -11 35 0 7 -111 237 -150
312 -11 20 -36 74 -57 120 l-38 85 -3 1401 -2 1401 55 124 c31 68 69 151 85
184 15 33 52 110 81 172 29 61 57 109 61 107 4 -3 8 -890 8 -1972z m-9951
-4145 c22 -27 131 -255 131 -275 0 -10 9 -31 20 -45 11 -14 20 -28 20 -31 0
-4 14 -36 31 -72 32 -69 40 -117 22 -135 -6 -6 -28 -11 -49 -11 -22 0 -68 0
-104 -1 -36 0 -83 0 -105 0 -555 -1 -3210 1 -3235 1 -91 2 -120 7 -126 24 -3
9 37 115 89 235 122 282 119 274 135 300 l14 23 1573 0 c1316 0 1574 -2 1584
-13z"/>
<path d="M3394 9320 c-2055 -4 -2474 -7 -2487 -19 -9 -7 -19 -29 -23 -50 -4
-20 -12 -43 -20 -51 -12 -14 -59 -119 -89 -201 -8 -19 -25 -57 -39 -84 -14
-26 -26 -58 -26 -70 0 -12 -9 -34 -20 -48 -11 -14 -20 -28 -20 -32 0 -3 -24
-56 -54 -118 -88 -185 -104 -221 -111 -249 -4 -14 -15 -34 -26 -44 -10 -9 -19
-23 -19 -29 0 -14 -49 -126 -83 -189 -20 -40 -20 -42 -19 -1243 1 -801 5
-1210 12 -1223 6 -11 32 -26 59 -34 75 -22 90 -33 99 -74 13 -54 16 -771 3
-804 -6 -15 -18 -36 -28 -46 -10 -10 -25 -28 -34 -39 -9 -11 -34 -23 -57 -26
-24 -4 -42 -14 -47 -24 -11 -30 -6 -4176 6 -4188 7 -7 226 -11 648 -13 l639
-2 65 132 c35 73 68 147 71 163 4 17 17 46 29 65 13 19 33 62 46 95 13 33 48
107 76 165 29 58 56 116 60 130 10 35 135 292 152 311 12 15 162 16 1698 18
l1684 2 40 -52 c23 -28 41 -55 41 -59 0 -5 23 -58 51 -117 28 -59 71 -153 96
-208 25 -55 55 -122 68 -150 12 -27 39 -88 60 -135 57 -129 155 -323 173 -343
15 -17 49 -18 564 -16 636 2 565 -15 579 133 4 50 11 109 14 131 3 22 11 70
16 107 6 38 18 73 27 81 13 11 55 17 162 22 194 10 196 7 220 -190 16 -133 39
-257 51 -271 10 -13 211 -15 1451 -14 l1438 2 14 26 c12 25 27 115 41 252 6
55 34 113 61 128 8 4 332 6 721 5 390 -2 718 -3 730 -3 35 0 50 -43 78 -225
14 -92 28 -171 31 -176 3 -6 515 -9 1235 -9 676 1 1234 -2 1238 -5 15 -9 60
53 101 137 21 43 42 84 48 91 6 6 26 53 45 102 56 145 91 223 149 335 31 58
59 117 63 130 8 27 64 151 96 212 10 20 19 43 19 50 0 7 17 47 38 88 l37 75 0
300 0 300 -56 115 c-32 63 -60 126 -64 140 -4 14 -24 61 -45 105 -84 176 -182
387 -241 520 -34 77 -71 152 -81 166 -19 25 -20 55 -23 765 -1 406 -6 747 -10
757 -4 10 -14 16 -22 13 -7 -3 -1459 -6 -3225 -6 -3099 -1 -3213 0 -3238 18
-14 10 -36 41 -50 69 -14 27 -30 56 -36 64 -6 8 -19 37 -29 64 -17 47 -90 208
-155 340 -17 34 -30 65 -30 70 0 6 -7 24 -16 40 -9 17 -27 57 -41 89 -13 32
-85 189 -159 348 -74 159 -134 291 -134 293 0 3 -16 40 -36 82 -20 43 -44 96
-54 118 -10 22 -32 69 -48 105 -17 36 -48 103 -70 150 -22 47 -51 110 -65 140
-14 30 -40 91 -57 135 -17 44 -44 103 -60 130 -16 28 -44 86 -63 131 -19 44
-46 105 -60 135 -83 180 -128 281 -151 336 -14 35 -55 122 -90 195 -35 73 -87
187 -116 253 -59 135 -129 289 -243 535 -14 30 -34 75 -45 100 -11 25 -68 151
-126 280 -58 129 -106 240 -106 247 0 7 -10 19 -23 27 -32 21 -66 22 -2873 16z"/>
<path d="M7050 9320 l-185 -5 -3 -37 c-2 -25 4 -49 20 -75 54 -87 148 -293
172 -376 9 -30 23 -60 31 -67 8 -7 15 -17 15 -23 0 -6 22 -56 49 -111 27 -56
60 -126 74 -156 105 -232 132 -292 158 -345 16 -33 29 -64 29 -68 0 -4 24 -56
54 -115 29 -59 57 -118 61 -132 4 -14 22 -56 40 -95 52 -112 72 -158 80 -185
4 -14 15 -36 25 -50 19 -28 46 -86 85 -179 14 -35 35 -80 46 -100 10 -19 19
-39 19 -43 0 -9 41 -97 126 -274 30 -61 54 -115 54 -120 0 -9 103 -240 165
-369 24 -49 62 -133 85 -185 23 -52 61 -135 85 -185 23 -49 51 -110 61 -134
10 -24 35 -76 54 -115 l35 -71 95 -5 c52 -3 1475 -4 3161 -2 2677 2 3068 4
3073 17 3 8 8 222 11 476 7 455 7 461 30 507 25 52 35 74 125 277 34 77 68
151 76 165 21 38 94 199 94 208 0 4 16 39 36 77 20 39 46 97 59 130 12 33 39
96 59 140 l36 80 0 753 c0 500 -3 760 -10 773 -10 18 -27 19 -551 19 l-539 0
-10 -22 c-5 -13 -23 -57 -40 -98 -17 -41 -60 -133 -95 -205 -36 -71 -83 -175
-106 -230 -78 -189 -92 -219 -110 -245 -10 -14 -37 -71 -59 -127 -68 -170
-145 -317 -172 -330 -17 -7 -483 -12 -1610 -14 l-1587 -4 -28 21 c-15 11 -46
56 -68 100 -61 122 -125 261 -125 272 0 5 -31 71 -68 145 -38 75 -86 180 -107
234 -21 54 -46 109 -55 123 -10 14 -34 68 -55 120 -21 52 -46 112 -56 132 -11
21 -19 46 -19 57 0 11 -10 31 -22 45 l-23 26 -1295 3 c-712 1 -1378 0 -1480
-3z"/>
</g>
</svg>
